<svg xmlns="http://www.w3.org/2000/svg" width="16" height="16" viewBox="0 0 16 16">
  <defs>
    <style>
      .cls-1 {
        fill: #82829a;
      }
    </style>
  </defs>
  <g id="Advanced_Seach" data-name="Advanced Seach" transform="translate(-6 -6)">
    <path id="Advanced_Seach-2" data-name="Advanced Seach" class="cls-1" d="M15.057,16a1.06,1.06,0,0,1-.374-.068l-.115-.053a.951.951,0,0,1-.207-.158l-4.027-4-.157.111a6.753,6.753,0,0,1-1.111.6,6.4,6.4,0,0,1-2.533.5A6.4,6.4,0,0,1,4,12.44,6.63,6.63,0,0,1,.509,8.98,6.242,6.242,0,0,1,0,6.473,6.28,6.28,0,0,1,.509,3.96,6.546,6.546,0,0,1,1.921,1.9,6.678,6.678,0,0,1,4.007.5,6.41,6.41,0,0,1,6.534,0,6.4,6.4,0,0,1,9.067.5a6.663,6.663,0,0,1,2.082,1.4,6.593,6.593,0,0,1,1.41,2.062,6.229,6.229,0,0,1,.51,2.508,6.227,6.227,0,0,1-.51,2.507l-.133.289a6.574,6.574,0,0,1-.657,1.066l-.046.058,4.006,3.974a.781.781,0,0,1,.208.311,1.061,1.061,0,0,1,.064.362.952.952,0,0,1-.459.829A.914.914,0,0,1,15.057,16ZM6.534,1.4a5.017,5.017,0,0,0-1.98.4,5.247,5.247,0,0,0-1.635,1.1A5.182,5.182,0,0,0,1.81,4.512a5.012,5.012,0,0,0,0,3.922,5.125,5.125,0,0,0,1.109,1.616,5.328,5.328,0,0,0,1.635,1.1,5.095,5.095,0,0,0,3.96,0,5.238,5.238,0,0,0,2.741-2.714,4.971,4.971,0,0,0,0-3.922,5.287,5.287,0,0,0-1.109-1.621,5.2,5.2,0,0,0-1.632-1.1A5.01,5.01,0,0,0,6.534,1.4Z" transform="translate(6 6)"/>
  </g>
</svg>