<?xml version="1.0" encoding="UTF-8" standalone="no"?>
<!-- Generator: Adobe Illustrator 19.0.0, SVG Export Plug-In . SVG Version: 6.00 Build 0)  -->

<svg
   xmlns:dc="http://purl.org/dc/elements/1.1/"
   xmlns:cc="http://creativecommons.org/ns#"
   xmlns:rdf="http://www.w3.org/1999/02/22-rdf-syntax-ns#"
   xmlns:svg="http://www.w3.org/2000/svg"
   xmlns="http://www.w3.org/2000/svg"
   xmlns:sodipodi="http://sodipodi.sourceforge.net/DTD/sodipodi-0.dtd"
   xmlns:inkscape="http://www.inkscape.org/namespaces/inkscape"
   version="1.1"
   id="Capa_1"
   x="0px"
   y="0px"
   viewBox="0 0 512 512"
   style="enable-background:new 0 0 512 512;"
   xml:space="preserve"
   inkscape:version="0.91 r13725"
   sodipodi:docname="الوقت.svg"><metadata
     id="metadata43"><rdf:RDF><cc:Work
         rdf:about=""><dc:format>image/svg+xml</dc:format><dc:type
           rdf:resource="http://purl.org/dc/dcmitype/StillImage" /><dc:title></dc:title></cc:Work></rdf:RDF></metadata><defs
     id="defs41"><linearGradient
       id="SVGID_1_"
       gradientUnits="userSpaceOnUse"
       x1="-2.2539999"
       x2="35.738998"
       y1="68.986"
       y2="30.992001"><stop
         offset="0"
         stop-color="#00e2ff"
         id="stop4" /><stop
         offset="1"
         stop-color="#00c5ff"
         id="stop6" /></linearGradient></defs><sodipodi:namedview
     pagecolor="#ffffff"
     bordercolor="#666666"
     borderopacity="1"
     objecttolerance="10"
     gridtolerance="10"
     guidetolerance="10"
     inkscape:pageopacity="0"
     inkscape:pageshadow="2"
     inkscape:window-width="2560"
     inkscape:window-height="1377"
     id="namedview39"
     showgrid="false"
     inkscape:zoom="0.4609375"
     inkscape:cx="-730.0339"
     inkscape:cy="256"
     inkscape:window-x="-8"
     inkscape:window-y="-8"
     inkscape:window-maximized="1"
     inkscape:current-layer="Capa_1" /><g
     id="g9" /><g
     id="g11" /><g
     id="g13" /><g
     id="g15" /><g
     id="g17" /><g
     id="g19" /><g
     id="g21" /><g
     id="g23" /><g
     id="g25" /><g
     id="g27" /><g
     id="g29" /><g
     id="g31" /><g
     id="g33" /><g
     id="g35" /><g
     id="g37" /><g
     style="fill:#808080;fill-opacity:1"
     transform="matrix(1.0714646,0,0,1.0714646,9.9022229e-4,7.9879547e-4)"
     id="g18367"><g
       style="fill:#808080;fill-opacity:1"
       id="g18313"><g
         style="fill:#808080;fill-opacity:1"
         id="g18315"><path
           style="fill:#808080;fill-opacity:1"
           inkscape:connector-curvature="0"
           d="m 374.099,385.518 c 71.737,-74.859 69.207,-193.698 -5.652,-265.435 -74.859,-71.737 -193.698,-69.206 -265.435,5.652 -69.586,72.615 -69.586,187.168 0,259.783 l -48.777,65.024 c -5.655,7.541 -4.127,18.238 3.413,23.893 7.54,5.655 18.238,4.127 23.893,-3.413 l 47.275,-63.044 c 65.4,47.651 154.078,47.651 219.477,0 l 47.275,63.044 c 5.655,7.541 16.353,9.069 23.893,3.413 7.541,-5.655 9.069,-16.353 3.413,-23.893 L 374.099,385.518 Z M 255.623,255.982 c 0,3.693 -1.198,7.286 -3.413,10.24 l -51.2,68.267 c -5.655,7.541 -16.353,9.069 -23.893,3.413 -7.54,-5.656 -9.069,-16.353 -3.413,-23.893 l 47.787,-63.71 0,-96.717 c 0,-9.426 7.641,-17.067 17.067,-17.067 9.426,0 17.067,7.641 17.067,17.067 l 0,102.4 z"
           id="path18317" /></g></g><g
       style="fill:#808080;fill-opacity:1"
       id="g18319"><g
         style="fill:#808080;fill-opacity:1"
         id="g18321"><path
           style="fill:#808080;fill-opacity:1"
           inkscape:connector-curvature="0"
           d="M 145.286,24.984 C 111.544,-7.918 57.519,-7.237 24.616,26.505 -7.698,59.644 -7.702,112.502 24.608,145.646 c 6.665,6.663 17.468,6.663 24.132,0 l 96.546,-96.529 c 6.663,-6.665 6.663,-17.468 0,-24.133 z"
           id="path18323" /></g></g><g
       style="fill:#808080;fill-opacity:1"
       id="g18325"><g
         style="fill:#808080;fill-opacity:1"
         id="g18327"><path
           style="fill:#808080;fill-opacity:1"
           inkscape:connector-curvature="0"
           d="m 452.486,24.984 c -33.323,-33.313 -87.339,-33.313 -120.661,0 -6.663,6.665 -6.663,17.468 0,24.132 l 96.529,96.529 c 6.665,6.663 17.468,6.663 24.132,0 33.313,-33.322 33.313,-87.338 0,-120.661 z"
           id="path18329" /></g></g><g
       style="fill:#808080;fill-opacity:1"
       id="g18331" /><g
       style="fill:#808080;fill-opacity:1"
       id="g18333" /><g
       style="fill:#808080;fill-opacity:1"
       id="g18335" /><g
       style="fill:#808080;fill-opacity:1"
       id="g18337" /><g
       style="fill:#808080;fill-opacity:1"
       id="g18339" /><g
       style="fill:#808080;fill-opacity:1"
       id="g18341" /><g
       style="fill:#808080;fill-opacity:1"
       id="g18343" /><g
       style="fill:#808080;fill-opacity:1"
       id="g18345" /><g
       style="fill:#808080;fill-opacity:1"
       id="g18347" /><g
       style="fill:#808080;fill-opacity:1"
       id="g18349" /><g
       style="fill:#808080;fill-opacity:1"
       id="g18351" /><g
       style="fill:#808080;fill-opacity:1"
       id="g18353" /><g
       style="fill:#808080;fill-opacity:1"
       id="g18355" /><g
       style="fill:#808080;fill-opacity:1"
       id="g18357" /><g
       style="fill:#808080;fill-opacity:1"
       id="g18359" /></g></svg>