<svg xmlns="http://www.w3.org/2000/svg" width="15.166" height="22" viewBox="0 0 15.166 22"><g id="flats-skyscraper-svgrepo-com" transform="translate(-79.524)"><g id="Group_3838" data-name="Group 3838" transform="translate(79.524 2.949)"><g id="Group_3837" data-name="Group 3837"><path id="Path_2487" data-name="Path 2487" d="M90.056,68.63h-9.83a.7.7,0,0,0-.7.7V86.979a.7.7,0,0,0,.7.7h9.83a.7.7,0,0,0,.7-.7V69.332A.7.7,0,0,0,90.056,68.63ZM83.924,84.17a.7.7,0,1,1-1.4,0v-.609a.7.7,0,1,1,1.4,0Zm0-3.838a.7.7,0,0,1-1.4,0V79.77a.7.7,0,0,1,1.4,0Zm0-3.791a.7.7,0,0,1-1.4,0v-.562a.7.7,0,0,1,1.4,0Zm0-3.791a.7.7,0,1,1-1.4,0v-.609a.7.7,0,1,1,1.4,0ZM87.762,84.17a.7.7,0,1,1-1.4,0v-.609a.7.7,0,1,1,1.4,0Zm0-3.838a.7.7,0,0,1-1.4,0V79.77a.7.7,0,0,1,1.4,0Zm0-3.791a.7.7,0,0,1-1.4,0v-.562a.7.7,0,0,1,1.4,0Zm0-3.791a.7.7,0,1,1-1.4,0v-.609a.7.7,0,1,1,1.4,0Z" transform="translate(-79.524 -68.63)" fill="#14b183"></path></g></g><g id="Group_3840" data-name="Group 3840" transform="translate(82.005)"><g id="Group_3839" data-name="Group 3839" transform="translate(0)"><path id="Path_2488" data-name="Path 2488" d="M142.877,0h-4.915a.7.7,0,0,0-.7.7v.609a.234.234,0,0,0,.234.234h5.851a.234.234,0,0,0,.234-.234V.7A.7.7,0,0,0,142.877,0Z" transform="translate(-137.26)" fill="#14b183"></path></g></g><g id="Group_3842" data-name="Group 3842" transform="translate(92.162 10.298)"><g id="Group_3841" data-name="Group 3841"><path id="Path_2489" data-name="Path 2489" d="M375.477,239.66h-1.591a.234.234,0,0,0-.234.234v11.234a.234.234,0,0,0,.234.234h1.591a.7.7,0,0,0,.7-.7v-10.3A.7.7,0,0,0,375.477,239.66Z" transform="translate(-373.651 -239.66)" fill="#14b183"></path></g></g></g></svg>