<svg id="svgexport-6_26_" data-name="svgexport-6 (26)" xmlns="http://www.w3.org/2000/svg" width="22.15" height="21.279" viewBox="0 0 22.15 21.279"><g id="_x35_-Talk_On_Phone" transform="translate(0 0)"><g id="Group_3717" data-name="Group 3717"><path id="Path_2481" data-name="Path 2481" d="M8.835,25.718l2.97-2.075A2.291,2.291,0,0,1,15,24.211l.69.988a25.525,25.525,0,0,0,3.675-3.086,25.553,25.553,0,0,0,3.086-3.674l-.988-.689a2.29,2.29,0,0,1-.568-3.193l2.075-2.97a2.291,2.291,0,0,1,2.62-.858,4.158,4.158,0,0,1,.772.379l.411.289a3.183,3.183,0,0,1,.288.258,4.115,4.115,0,0,1,1.056,1.882c.855,3.205-1.263,8.051-5.27,12.058-3.365,3.365-7.408,5.456-10.551,5.456h0a5.862,5.862,0,0,1-1.508-.186A4.118,4.118,0,0,1,8.9,29.809a3.047,3.047,0,0,1-.272-.307l-.289-.413a4.078,4.078,0,0,1-.365-.752,2.256,2.256,0,0,1,.858-2.62Z" transform="translate(-6.151 -9.772)" fill="#14b183"></path><path id="Path_2482" data-name="Path 2482" d="M30.615,8.793h11a.458.458,0,0,1,.458.458V15.67a.458.458,0,0,1-.458.458H39.991L38.9,18.459a.459.459,0,0,1-.83,0l-1.094-2.33H30.615a.458.458,0,0,1-.458-.458V9.252a.458.458,0,0,1,.458-.458Zm2.321,5.043H39.3a.458.458,0,1,0,0-.917H32.936a.458.458,0,1,0,0,.917Zm0-1.834H39.3a.458.458,0,1,0,0-.917H32.936a.458.458,0,1,0,0,.917Z" transform="translate(-30.157 -8.793)" fill="#14b183"></path></g></g></svg>