<svg xmlns="http://www.w3.org/2000/svg" width="28" height="20" viewBox="0 0 28 20">
  <defs>
    <style>
      .cls-1 {
        fill: #14b183;
      }

      .cls-2 {
        fill: #14b183;
      }
    </style>
  </defs>
  <g id="Camps" transform="translate(0 -4)">
    <g id="Camps-2" data-name="Camps" transform="translate(0 4)">
      <path id="Path" class="cls-1" d="M13.951,0A1,1,0,0,0,13.2.413L.266,18.31a1,1,0,0,0,1.406,1.415l.012-.012,5.374-4.7a.288.288,0,0,1,.476.257l-.489,3.423a1,1,0,0,0,1.847.747l.02-.037,2.761-5.057a2.629,2.629,0,0,1,4.67,0l2.767,5.072q.017.034.037.066a1,1,0,0,0,1.819-.8l-.488-3.417a.288.288,0,0,1,.476-.257l5.374,4.7q.027.024.057.047a1,1,0,0,0,1.359-1.452L14.815.413A1,1,0,0,0,13.951,0Z"/>
      <path id="Path-2" data-name="Path" class="cls-2" d="M.983,0A.963.963,0,0,0,0,.941V4.058a.917.917,0,0,0,.5.815,1.064,1.064,0,0,0,1.007,0A.917.917,0,0,0,2,4.058V.941A.9.9,0,0,0,1.7.271,1.039,1.039,0,0,0,.983,0Z" transform="translate(13 15)"/>
    </g>
  </g>
</svg>