<svg xmlns="http://www.w3.org/2000/svg" width="26" height="24" viewBox="0 0 26 24">
  <defs>
    <style>
      .cls-1 {
        fill: #14b183;
      }

      .cls-2 {
        fill: #14b183;
      }
    </style>
  </defs>
  <g id="Chalets_and_breaks" data-name="Chalets and breaks" transform="translate(-1 -2)">
    <g id="Chalets_and_breaks-2" data-name="Chalets and breaks" transform="translate(1 2)">
      <path id="Combined_Shape" data-name="Combined Shape" class="cls-1" d="M0,19.875V3A3,3,0,0,1,3,0H4A1,1,0,1,1,4,2H3A1,1,0,0,0,2,3V19.875A4.773,4.773,0,0,1,1,20,4.765,4.765,0,0,1,0,19.875Zm14.342-.558A2.811,2.811,0,0,0,14,19.193V19H4V17H14V15H4V13H14V11H4V9H14V7H4V5H14V3a3,3,0,0,1,3-3h1a1,1,0,1,1,0,2H17a1,1,0,0,0-1,1V19.875A8.355,8.355,0,0,1,14.342,19.317Z" transform="translate(4)"/>
      <path id="Path" class="cls-2" d="M.977,0A1,1,0,0,0,.565,1.9,10.875,10.875,0,0,0,5.01,3a9.509,9.509,0,0,0,4-.92,9.509,9.509,0,0,0,4,.92,9.509,9.509,0,0,0,4-.92A9.509,9.509,0,0,0,21,3a10.875,10.875,0,0,0,4.445-1.1A1,1,0,1,0,24.553.111,9.893,9.893,0,0,1,21,1,9.893,9.893,0,0,1,17.451.111a1,1,0,0,0-.894,0A9.893,9.893,0,0,1,13.006,1,9.893,9.893,0,0,1,9.455.111a1,1,0,0,0-.894,0A9.893,9.893,0,0,1,5.01,1,9.893,9.893,0,0,1,1.459.111,1,1,0,0,0,.977,0Z" transform="translate(0 21)"/>
    </g>
  </g>
</svg>