<svg xmlns="http://www.w3.org/2000/svg" width="22.749" height="18.344" viewBox="0 0 22.749 18.344"><g id="heart-svgrepo-com" transform="translate(0 -33.251)"><g id="Artwork_15_" transform="translate(0 33.251)"><g id="Layer_5_15_" transform="translate(0)"><path id="Path_2476" data-name="Path 2476" d="M16.878,33.251c-3.084,0-5.04,3.438-5.5,3.438-.4,0-2.281-3.438-5.5-3.438A5.988,5.988,0,0,0,.01,38.966,6.869,6.869,0,0,0,1.289,43.3c1.6,2.435,8.621,8.3,10.1,8.3,1.507,0,8.46-5.841,10.075-8.3a6.868,6.868,0,0,0,1.279-4.332,5.988,5.988,0,0,0-5.861-5.715" transform="translate(0 -33.251)" fill="#14b183"></path></g></g></g></svg>