<svg id="sign-out-svgrepo-com" xmlns="http://www.w3.org/2000/svg" width="25.943" height="25.049" viewBox="0 0 25.943 25.049"><path id="Path_2479" data-name="Path 2479" d="M21.1,4H6.789A1.789,1.789,0,0,0,5,5.789V27.26a1.789,1.789,0,0,0,1.789,1.789H21.1a1.789,1.789,0,0,0,1.789-1.789V21.892H14.51a.895.895,0,0,1,0-1.789h8.382V5.789A1.789,1.789,0,0,0,21.1,4Z" transform="translate(-5 -4)" fill="#14b183"></path><path id="Path_2480" data-name="Path 2480" d="M27.827,17.255a.895.895,0,0,0-1.261,1.261l3.024,2.961H25v1.789h4.589l-3.024,3.1a.895.895,0,1,0,1.261,1.261l5.224-5.189Z" transform="translate(-7.108 -5.374)" fill="#14b183"></path></svg>