<svg xmlns="http://www.w3.org/2000/svg" xmlns:xlink="http://www.w3.org/1999/xlink" version="1.1" id="Layer_2_00000051365305309419169260000005442913087650875287_" x="0px" y="0px" viewBox="0 0 222 49.2" width="222" height="50" style="enable-background:new 0 0 222 49.2;" xml:space="preserve">
<style type="text/css">
	.st0{fill:none;}
	.st1{fill:#84B740;}
	.st2{fill:#259BD6;}
	.st3{fill:#27292D;}
	.st4{fill:#FFFFFF;}
	.st5{fill-rule:evenodd;clip-rule:evenodd;fill:#016FD0;}
	.st6{fill-rule:evenodd;clip-rule:evenodd;fill:#FFFFFF;}
	.st7{fill:#EEECE8;}
	.st8{fill:#FF5F00;}
	.st9{fill-rule:evenodd;clip-rule:evenodd;fill:#EB001B;}
	.st10{clip-path:url(#SVGID_00000044178913564276093800000008356258860269382584_);}
	.st11{fill:#F79E1B;}
	.st12{fill-rule:evenodd;clip-rule:evenodd;fill:#F79E1B;}
	.st13{fill:#FBFBFB;}
	.st14{fill:#F7B600;}
	.st15{fill:#1A1F71;}
	.st16{fill-rule:evenodd;clip-rule:evenodd;fill:#1A1F71;}
	.st17{fill:none;stroke:#CB548D;stroke-linecap:round;stroke-linejoin:round;}
	.st18{fill:none;stroke:#CA538C;stroke-linecap:round;stroke-linejoin:round;}
	.st19{fill:#929497;}
	.st20{fill:#EE7623;}
</style>
<g id="Layer_1-2">
	<g>
		<g>
			<path class="st0" d="M145,0h-31c-1.7,0-3,1.3-3,3v19c0,1.7,1.3,3,3,3h31c1.7,0,3-1.3,3-3V3C148,1.3,146.7,0,145,0z"/>
			<g>
				<rect x="111" y="13.4" class="st1" width="15.7" height="5.2"/>
				<rect x="111" y="6.3" class="st2" width="15.7" height="5.2"/>
				<g>
					<path class="st3" d="M142.3,17.6L142.3,17.6c-0.3,0.1-0.4,0.1-0.6,0.1c-0.4,0-0.9-0.2-0.9-1.2c0-0.5,0.1-1.2,0.9-1.2l0,0       c0.1,0,0.3,0,0.6,0.1l0.1,0V17.6L142.3,17.6L142.3,17.6z M142.4,12.7l-0.1,0v1.8l-0.1,0h0c-0.1-0.1-0.4-0.1-0.7-0.1       c-1.5,0-1.8,1.1-1.8,2.1c0,1.3,0.7,2.1,2,2.1c0.6,0,0.9-0.1,1.4-0.2c0.4-0.1,0.5-0.3,0.5-0.7v-5.2       C143.2,12.5,142.8,12.6,142.4,12.7"/>
					<path class="st3" d="M146.8,17.6L146.8,17.6l-0.3,0.1c-0.2,0.1-0.4,0.1-0.6,0.1c-0.4,0-0.6-0.2-0.6-0.5c0-0.2,0.1-0.5,0.7-0.5       h0.8L146.8,17.6L146.8,17.6z M146.3,14.3c-0.5,0-0.9,0.1-1.6,0.3l-0.4,0.1l0.1,0.9l0.4-0.1c0.4-0.1,0.9-0.2,1.3-0.2       c0.2,0,0.7,0,0.7,0.6v0.2h-0.7c-1.3,0-1.9,0.4-1.9,1.3c0,0.8,0.6,1.2,1.5,1.2c0.3,0,0.7-0.1,1-0.1h0l0.1,0       c0.4,0.1,0.7,0.1,1.1,0.2v-2.9C148,14.8,147.4,14.3,146.3,14.3"/>
					<path class="st3" d="M137.8,17.6L137.8,17.6l-0.3,0.1c-0.2,0.1-0.4,0.1-0.6,0.1c-0.4,0-0.6-0.2-0.6-0.5c0-0.2,0.1-0.5,0.7-0.5       h0.8L137.8,17.6L137.8,17.6L137.8,17.6z M137.3,14.3c-0.5,0-0.9,0.1-1.6,0.3l-0.4,0.1l0.1,0.9l0.4-0.1c0.4-0.1,0.9-0.2,1.3-0.2       c0.2,0,0.7,0,0.7,0.6v0.2h-0.7c-1.3,0-1.9,0.4-1.9,1.3c0,0.8,0.6,1.2,1.5,1.2c0.3,0,0.7-0.1,1-0.1h0l0.1,0       c0.4,0.1,0.7,0.1,1.1,0.2v-2.9C139,14.8,138.4,14.3,137.3,14.3"/>
					<path class="st3" d="M132.9,14.3c-0.6,0-1.1,0.2-1.3,0.3l-0.1,0l0,0c-0.2-0.2-0.6-0.3-1.1-0.3c-0.4,0-0.9,0.1-1.3,0.2       c-0.4,0.1-0.6,0.3-0.6,0.7v3.3h1.2v-3.1l0.1,0c0.2-0.1,0.4-0.1,0.5-0.1c0.4,0,0.5,0.2,0.5,0.6v2.6h1.2v-2.7c0-0.2,0-0.2,0-0.3       l0-0.1l0.1,0c0.2-0.1,0.4-0.1,0.6-0.1c0.2,0,0.5,0.1,0.5,0.6v2.6h1.2v-2.7C134.5,14.8,134,14.3,132.9,14.3"/>
					<path class="st3" d="M145.9,9.7c-0.2,0-0.5,0-0.7-0.1h-0.1V7.9c0-0.2,0-0.2,0-0.3l0-0.1l0.1,0c0,0,0,0,0.1,0h0l0.1,0       c0,0,0,0,0,0c0.3-0.1,0.5-0.1,0.6-0.1l0,0c0.8,0,0.9,0.7,0.9,1.2C146.8,9.5,146.3,9.8,145.9,9.7 M145.9,6.4L145.9,6.4       c-0.7,0-1.5,0.2-1.7,0.6C144,7.1,144,7.4,144,7.6l0,0v1.8c0,0.2,0,0.2,0,0.2l0,0.1h-2.2V8.5l0,0c0-1.4-0.8-2.1-2-2.1h-1.1       c-0.1,0.3-0.1,0.6-0.1,0.9h1.1c0.6,0,0.9,0.5,0.9,1.3v1.3l-0.1,0c0,0-0.1,0-0.3,0h-1.9c0,0.2-0.1,0.6-0.1,0.9h6       c0.2,0,0.4-0.1,0.6-0.1c0.3,0.1,0.9,0.2,1.2,0.2c1.3,0,2.1-0.9,2.1-2.2C148,7.3,147.2,6.4,145.9,6.4"/>
					<path class="st3" d="M135.4,11.2L135.4,11.2c1.4,0,2-0.4,2-1.5c0-0.8-0.6-1.4-1.5-1.4h-1.2c-0.4,0-0.6-0.2-0.6-0.6       c0-0.2,0.1-0.5,0.7-0.5h2.6c0.1-0.3,0.1-0.6,0.1-0.9h-2.7c-1.3,0-1.9,0.5-1.9,1.4s0.6,1.3,1.5,1.3h1.2c0.4,0,0.6,0.3,0.6,0.6       c0,0.2-0.1,0.6-0.7,0.6h-4.7c-0.6,0-1-0.3-1-1.1V8.7c0-0.8,0.3-1.3,1-1.3h1.1c0.1-0.3,0.1-0.6,0.1-0.9h-1.6c-1.2,0-2,0.8-2,2.1       l0,0v0.6c0,1.4,0.8,2,2,2L135.4,11.2L135.4,11.2z"/>
				</g>
			</g>
		</g>
		<g>
			<path class="st0" d="M182,0h-31c-1.7,0-3,1.3-3,3v19c0,1.7,1.3,3,3,3h31c1.7,0,3-1.3,3-3V3C185,1.3,183.7,0,182,0z"/>
			<g>
				<rect x="148" y="13.4" class="st1" width="15.6" height="5.2"/>
				<rect x="148" y="6.3" class="st2" width="15.6" height="5.2"/>
				<g>
					<path class="st4" d="M179.3,17.6L179.3,17.6c-0.3,0.1-0.4,0.1-0.6,0.1c-0.4,0-0.9-0.2-0.9-1.2c0-0.5,0.1-1.2,0.9-1.2l0,0       c0.1,0,0.3,0,0.6,0.1l0.1,0V17.6L179.3,17.6L179.3,17.6z M179.4,12.7l-0.1,0v1.8l-0.1,0h0c-0.1-0.1-0.4-0.1-0.7-0.1       c-1.5,0-1.8,1.1-1.8,2.1c0,1.3,0.7,2.1,2,2.1c0.6,0,0.9-0.1,1.4-0.2c0.4-0.1,0.5-0.3,0.5-0.7v-5.2       C180.2,12.5,179.8,12.6,179.4,12.7"/>
					<path class="st4" d="M183.8,17.6L183.8,17.6l-0.3,0.1c-0.2,0.1-0.4,0.1-0.6,0.1c-0.4,0-0.6-0.2-0.6-0.5c0-0.2,0.1-0.5,0.7-0.5       h0.8L183.8,17.6L183.8,17.6z M183.3,14.3c-0.5,0-0.9,0.1-1.6,0.3l-0.4,0.1l0.1,0.9l0.4-0.1c0.4-0.1,0.9-0.2,1.3-0.2       c0.2,0,0.7,0,0.7,0.6v0.2h-0.7c-1.3,0-1.9,0.4-1.9,1.3c0,0.8,0.6,1.2,1.5,1.2c0.3,0,0.7-0.1,1-0.1h0l0.1,0       c0.4,0.1,0.7,0.1,1.1,0.2v-2.9C185,14.8,184.4,14.3,183.3,14.3"/>
					<path class="st4" d="M174.8,17.6L174.8,17.6l-0.3,0.1c-0.2,0.1-0.4,0.1-0.6,0.1c-0.4,0-0.6-0.2-0.6-0.5c0-0.2,0.1-0.5,0.7-0.5       h0.8L174.8,17.6L174.8,17.6L174.8,17.6z M174.3,14.3c-0.5,0-0.9,0.1-1.6,0.3l-0.4,0.1l0.1,0.9l0.4-0.1c0.4-0.1,0.9-0.2,1.3-0.2       c0.2,0,0.7,0,0.7,0.6v0.2h-0.7c-1.3,0-1.9,0.4-1.9,1.3c0,0.8,0.6,1.2,1.5,1.2c0.3,0,0.7-0.1,1-0.1h0l0.1,0       c0.4,0.1,0.7,0.1,1.1,0.2v-2.9C176,14.8,175.4,14.3,174.3,14.3"/>
					<path class="st4" d="M169.9,14.3c-0.6,0-1.1,0.2-1.3,0.3l-0.1,0l0,0c-0.2-0.2-0.6-0.3-1.1-0.3c-0.4,0-0.9,0.1-1.3,0.2       c-0.4,0.1-0.6,0.3-0.6,0.7v3.3h1.2v-3.1l0.1,0c0.2-0.1,0.4-0.1,0.5-0.1c0.4,0,0.5,0.2,0.5,0.6v2.6h1.2v-2.7c0-0.2,0-0.2,0-0.3       l0-0.1l0.1,0c0.2-0.1,0.4-0.1,0.6-0.1c0.2,0,0.5,0.1,0.5,0.6v2.6h1.2v-2.7C171.5,14.8,171,14.3,169.9,14.3"/>
					<path class="st4" d="M182.9,9.7c-0.2,0-0.5,0-0.7-0.1h-0.1V7.9c0-0.2,0-0.2,0-0.3l0-0.1l0.1,0c0,0,0,0,0.1,0h0l0.1,0       c0,0,0,0,0,0c0.3-0.1,0.5-0.1,0.6-0.1l0,0c0.8,0,0.9,0.7,0.9,1.2C183.8,9.5,183.3,9.8,182.9,9.7 M182.9,6.4L182.9,6.4       c-0.7,0-1.5,0.2-1.7,0.6C181,7.1,181,7.4,181,7.6l0,0v1.8c0,0.2,0,0.2,0,0.2l0,0.1h-2.2V8.5l0,0c0-1.4-0.8-2.1-2-2.1h-1.1       c-0.1,0.3-0.1,0.6-0.1,0.9h1.1c0.6,0,0.9,0.5,0.9,1.3v1.3l-0.1,0c0,0-0.1,0-0.3,0h-1.9c0,0.2-0.1,0.6-0.1,0.9h6       c0.2,0,0.4-0.1,0.6-0.1c0.3,0.1,0.9,0.2,1.2,0.2c1.3,0,2.1-0.9,2.1-2.2C185,7.3,184.2,6.4,182.9,6.4"/>
					<path class="st4" d="M172.4,11.2L172.4,11.2c1.4,0,2-0.4,2-1.5c0-0.8-0.6-1.4-1.5-1.4h-1.2c-0.4,0-0.6-0.2-0.6-0.6       c0-0.2,0.1-0.5,0.7-0.5h2.6c0.1-0.3,0.1-0.6,0.1-0.9h-2.7c-1.3,0-1.9,0.5-1.9,1.4s0.6,1.3,1.5,1.3h1.2c0.4,0,0.6,0.3,0.6,0.6       c0,0.2-0.1,0.6-0.7,0.6h-4.7c-0.6,0-1-0.3-1-1.1V8.7c0-0.8,0.3-1.3,1-1.3h1.1c0.1-0.3,0.1-0.6,0.1-0.9h-1.6c-1.2,0-2,0.8-2,2.1       l0,0v0.6c0,1.4,0.8,2,2,2L172.4,11.2L172.4,11.2z"/>
				</g>
			</g>
		</g>
		<g>
			<path class="st0" d="M108,0H77c-1.7,0-3,1.3-3,3v19c0,1.7,1.3,3,3,3h31c1.7,0,3-1.3,3-3V3C111,1.3,109.7,0,108,0z"/>
			<g>
				<polygon class="st5" points="80,0 105,0 105,25 80,25 80,0     "/>
				<polygon class="st6" points="89.1,21 89.1,12.1 105,12.1 105,14.6 103.2,16.5 105,18.5 105,21.1 102.1,21.1 100.5,19.3       98.9,21.1 89.1,21     "/>
				<polygon class="st5" points="90.1,20.1 90.1,13.1 96.1,13.1 96.1,14.7 92,14.7 92,15.8 95.9,15.8 95.9,17.4 92,17.4 92,18.4       96.1,18.4 96.1,20.1 90.1,20.1     "/>
				<polygon class="st5" points="96,20.1 99.3,16.6 96,13.1 98.6,13.1 100.6,15.3 102.6,13.1 105,13.1 105,13.1 101.8,16.6 105,20       105,20.1 102.6,20.1 100.5,17.8 98.5,20.1 96,20.1     "/>
				<polygon class="st6" points="89.8,4.1 93.6,4.1 95,7.2 95,4.1 99.7,4.1 100.6,6.4 101.4,4.1 105,4.1 105,13.1 85.8,13.1       89.8,4.1     "/>
				<path class="st5" d="M90.5,5.1l-3.1,7h2.1l0.6-1.4h3.2l0.6,1.4h2.2l-3.1-7H90.5z M90.8,9.1l0.9-2.2l0.9,2.2H90.8z"/>
				<polygon class="st5" points="96,12.1 96,5.1 99,5.1 100.6,9.4 102.1,5.1 105,5.1 105,12.1 103.2,12.1 103.2,7.3 101.4,12.1       99.7,12.1 97.9,7.3 97.9,12.1 96,12.1     "/>
			</g>
		</g>
		<g>
			<path class="st7" d="M3,0h31c1.7,0,3,1.3,3,3v19c0,1.7-1.3,3-3,3H3c-1.7,0-3-1.3-3-3V3C0,1.3,1.3,0,3,0z"/>
			<rect x="14.6" y="5.8" class="st8" width="9.2" height="13"/>
			<path class="st9" d="M16,12.3c0-2.6,1.2-5,3.2-6.6c-3.6-2.9-8.9-2.2-11.8,1.4S5.2,16,8.8,18.9c3,2.4,7.3,2.4,10.4,0     C17.2,17.3,16,14.9,16,12.3"/>
			<g>
				<defs>
					<path id="SVGID_1_" d="M32.4,18.8v-1.2h0.5v-0.3h-1.1v0.3h0.4v1.2H32.4z M34.5,18.8v-1.5h-0.3l-0.4,1.1l-0.4-1.1h-0.3v1.5h0.2       v-1.1l0.4,1H34l0.4-1v1.1H34.5z"/>
				</defs>
				<clipPath id="SVGID_00000162354212076057843600000005436541969652364475_">
					<use xlink:href="#SVGID_1_" style="overflow:visible;"/>
				</clipPath>
				<g style="clip-path:url(#SVGID_00000162354212076057843600000005436541969652364475_);">
					<rect x="26.8" y="12.3" class="st11" width="12.8" height="11.5"/>
				</g>
			</g>
			<path class="st12" d="M32.8,12.3c0,4.6-3.8,8.4-8.4,8.4c-1.9,0-3.7-0.6-5.2-1.8c3.6-2.9,4.3-8.1,1.4-11.8c-0.4-0.5-0.9-1-1.4-1.4     c3.6-2.9,8.9-2.2,11.8,1.4C32.1,8.6,32.8,10.4,32.8,12.3L32.8,12.3z"/>
		</g>
		<g>
			<path class="st13" d="M55.5,0.7c6.2,0,12.3,0,18.5,0c0,7.9,0,15.8,0,23.7c-12.3,0-24.7,0-37,0c0-7.9,0-15.8,0-23.7     C43.2,0.7,49.3,0.7,55.5,0.7z"/>
			<g>
				<rect x="37.6" y="20.4" class="st14" width="35.8" height="3.2"/>
				<rect x="37.6" y="1.4" class="st15" width="35.8" height="3.2"/>
				<path class="st16" d="M52.1,8.1l-3.7,8.8H46l-1.8-7c-0.1-0.4-0.2-0.6-0.5-0.8c-0.5-0.3-1.5-0.6-2.2-0.8l0-0.3h3.9      c0.5,0,0.9,0.3,1,0.9l1,5.1l2.4-6C49.7,8.1,52.1,8.1,52.1,8.1z M61.5,14c0-2.3-3.2-2.5-3.2-3.5c0-0.3,0.3-0.6,1-0.7      c0.3,0,1.2-0.1,2.2,0.4L62,8.3c-0.5-0.2-1.2-0.4-2.1-0.4c-2.2,0-3.8,1.2-3.8,2.9c0,1.3,1.1,2,2,2.4c0.9,0.4,1.2,0.7,1.2,1.1      c0,0.6-0.7,0.9-1.4,0.9c-1.2,0-1.8-0.3-2.3-0.6l-0.4,1.9c0.5,0.2,1.5,0.5,2.5,0.5C60,17,61.6,15.9,61.5,14L61.5,14z M67.5,16.9      h2.1l-1.8-8.8h-1.9c-0.4,0-0.8,0.2-1,0.6l-3.4,8.2h2.4l0.5-1.3h2.9L67.5,16.9L67.5,16.9z M64.9,13.8l1.2-3.3l0.7,3.3      C66.8,13.8,64.9,13.8,64.9,13.8z M55.4,8.1l-1.9,8.8h-2.3l1.9-8.8C53.1,8.1,55.4,8.1,55.4,8.1z"/>
			</g>
		</g>
		
		<g>
			<g>
				<path class="st13" d="M188.1,0.7h30.9c1.4,0,2.4,1.1,2.4,2.5v18.6c0,1.4-1.1,2.5-2.4,2.5h-30.9c-1.4,0-2.4-1.1-2.4-2.5V3.2      C185.6,1.8,186.7,0.7,188.1,0.7L188.1,0.7z"/>
				<path d="M218.9,1.3c1,0,1.8,0.8,1.8,1.8v18.7c0,1-0.8,1.8-1.8,1.8h-30.9c-1,0-1.8-0.8-1.8-1.8V3.2c0-1,0.8-1.8,1.8-1.8H218.9       M218.9,0.1h-30.9c-1.7,0-3.1,1.4-3.1,3.1v18.6c0,1.7,1.4,3.1,3.1,3.1h30.9c1.7,0,3.1-1.4,3.1-3.1V3.2      C222,1.5,220.6,0.1,218.9,0.1L218.9,0.1L218.9,0.1z"/>
			</g>
			<g>
				<g transform="translate(3.923968 5.376953)">
					<path d="M190.6,3.7c0.3-0.4,0.5-0.8,0.4-1.3c-0.4,0-0.9,0.3-1.2,0.6c-0.3,0.3-0.5,0.8-0.4,1.3C189.9,4.3,190.3,4,190.6,3.7"/>
					<path d="M191.1,4.3c-0.7,0-1.3,0.4-1.6,0.4s-0.8-0.4-1.4-0.4c-0.7,0-1.4,0.4-1.7,1c-0.7,1.2-0.2,3.1,0.5,4.1       c0.4,0.5,0.8,1.1,1.3,1c0.5,0,0.7-0.3,1.4-0.3s0.8,0.3,1.4,0.3c0.6,0,0.9-0.5,1.3-1c0.4-0.6,0.6-1.1,0.6-1.1       c0,0-1.1-0.4-1.1-1.6c0-1,0.9-1.5,0.9-1.6C192.1,4.5,191.3,4.4,191.1,4.3"/>
				</g>
				<g transform="translate(9.795062 5.770001)">
					<path d="M193.9,3c1.5,0,2.5,1,2.5,2.5s-1.1,2.5-2.6,2.5h-1.6v2.6h-1.2V3L193.9,3L193.9,3z M192.3,6.9h1.4c1,0,1.6-0.6,1.6-1.5       s-0.6-1.5-1.6-1.5h-1.4L192.3,6.9L192.3,6.9z"/>
					<path d="M196.8,8.9c0-1,0.8-1.5,2.1-1.6l1.5-0.1V6.8c0-0.6-0.4-0.9-1.1-0.9c-0.6,0-1,0.3-1.1,0.8H197c0-1,1-1.7,2.2-1.7       c1.4,0,2.2,0.7,2.2,1.8v3.7h-1.1V9.6h0c-0.3,0.6-1,1-1.8,1C197.5,10.5,196.8,9.9,196.8,8.9L196.8,8.9z M200.4,8.4V8L199,8.1       c-0.7,0.1-1.1,0.3-1.1,0.8s0.4,0.8,1,0.8C199.8,9.6,200.4,9.1,200.4,8.4L200.4,8.4z"/>
					<path d="M202.5,12.5v-0.9c0.1,0,0.2,0,0.4,0c0.5,0,0.8-0.2,1-0.8l0.1-0.3L202,5h1.2l1.4,4.4h0L206,5h1.2l-2.1,5.7       c-0.5,1.3-1,1.8-2.2,1.8C202.9,12.5,202.6,12.5,202.5,12.5L202.5,12.5z"/>
				</g>
			</g>
		</g>
		
		
		
	</g>
</g>
</svg>