<svg width="40" height="40" viewBox="0 0 40 40" fill="none" xmlns="http://www.w3.org/2000/svg">
<g clip-path="url(#clip0_664_2484)">
<path d="M37 0H3C1.34315 0 0 1.34315 0 3V37C0 38.6569 1.34315 40 3 40H37C38.6569 40 40 38.6569 40 37V3C40 1.34315 38.6569 0 37 0Z" fill="white"/>
<mask id="mask0_664_2484" style="mask-type:luminance" maskUnits="userSpaceOnUse" x="15" y="10" width="10" height="20">
<path d="M21.8 29.4201H18.2C17.9239 29.4201 17.7 29.1962 17.7 28.9201V22.3001H15.52C15.2439 22.3001 15.02 22.0762 15.02 21.8001V18.2001C15.02 17.9239 15.2439 17.7001 15.52 17.7001H17.7V14.6401C17.7005 13.5635 18.1285 12.5311 18.89 11.7701C19.6615 11.0059 20.7041 10.5781 21.79 10.5801H24.48C24.7562 10.5801 24.98 10.8039 24.98 11.0801V14.6401C24.98 14.9162 24.7562 15.1401 24.48 15.1401H22.68C22.5788 15.1524 22.4915 15.2169 22.45 15.3101C22.3456 15.5176 22.294 15.7478 22.3 15.9801V17.7001H24.48C24.7562 17.7001 24.98 17.9239 24.98 18.2001V21.8001C24.98 22.0762 24.7562 22.3001 24.48 22.3001H22.3V28.9201C22.3 29.0527 22.2473 29.1799 22.1536 29.2736C22.0598 29.3674 21.9326 29.4201 21.8 29.4201ZM18.7 28.4201H21.3V21.8001C21.3 21.5239 21.5239 21.3001 21.8 21.3001H24V18.7001H21.8C21.5239 18.7001 21.3 18.4762 21.3 18.2001V16.0001C21.2945 15.6036 21.3872 15.2119 21.57 14.8601C21.776 14.4569 22.1783 14.1912 22.63 14.1601H24V11.58L21.8 11.5801C20.9758 11.5736 20.1834 11.8978 19.6 12.4801C19.0175 13.051 18.6926 13.8345 18.7 14.6501V18.2001C18.7 18.4762 18.4762 18.7001 18.2 18.7001H16V21.3001H18.2C18.4762 21.3001 18.7 21.5239 18.7 21.8001V28.4201Z" fill="#C9548B"/>
</mask>
<g mask="url(#mask0_664_2484)">
<path fill-rule="evenodd" clip-rule="evenodd" d="M6 6H34V34H6V6Z" fill="#284DA0"/>
</g>
</g>
<defs>
<clipPath id="clip0_664_2484">
<rect width="40" height="40" fill="white"/>
</clipPath>
</defs>
</svg>
