<svg width="40" height="40" viewBox="0 0 40 40" fill="none" xmlns="http://www.w3.org/2000/svg">
<g clip-path="url(#clip0_664_2430)">
<path d="M37 0H3C1.34315 0 0 1.34315 0 3V37C0 38.6569 1.34315 40 3 40H37C38.6569 40 40 38.6569 40 37V3C40 1.34315 38.6569 0 37 0Z" fill="white"/>
<path d="M22.1392 17.5348C22.8153 17.2275 23.4563 17.071 24.0752 17.0711C25.3478 17.1023 26.421 17.5522 27.2678 18.4147C28.1116 19.2742 28.5527 20.3372 28.5838 21.5795L28.584 28.084C28.584 28.3601 28.3601 28.584 28.084 28.584H24.523C24.2469 28.584 24.023 28.3601 24.023 28.084L24.0238 22.0804C24.005 21.7501 23.8565 21.4722 23.5563 21.2233C23.2396 20.9613 22.8979 20.835 22.514 20.835C22.1575 20.835 21.9192 20.939 21.7531 21.1482C21.5534 21.4007 21.4425 21.7072 21.422 22.052V28.084C21.422 28.3601 21.1981 28.584 20.922 28.584H17.361C17.0849 28.584 16.861 28.3601 16.861 28.084V17.362C16.861 17.0859 17.0849 16.862 17.361 16.862H20.922C21.1981 16.862 21.422 17.0859 21.422 17.362V17.9449C21.6399 17.7895 21.8791 17.6527 22.1392 17.5348ZM26.5542 19.1153C25.8928 18.4416 25.0679 18.0957 24.063 18.071C23.609 18.071 23.1061 18.1938 22.5526 18.4453C22.021 18.6865 21.6201 19.0168 21.3382 19.4402C21.0639 19.852 20.422 19.6578 20.422 19.163V17.862H17.861V27.584H20.4221L20.4228 22.0236C20.4555 21.4501 20.6379 20.9462 20.9694 20.5271C21.3352 20.0664 21.8653 19.835 22.514 19.835C23.1337 19.835 23.7 20.0444 24.1942 20.4531C24.7026 20.8747 24.9871 21.4072 25.023 22.052V27.584H27.584V21.5984C27.5579 20.6097 27.2173 19.7906 26.5542 19.1153ZM12 28.585C11.7239 28.585 11.5 28.3611 11.5 28.085V17.362C11.5 17.0859 11.7239 16.862 12 16.862H15.561C15.8371 16.862 16.061 17.0859 16.061 17.362V28.085C16.061 28.3611 15.8371 28.585 15.561 28.585H12ZM15.061 27.585V17.862H12.5V27.585H15.061ZM13.801 11.5C14.4385 11.5 14.9882 11.7293 15.4187 12.1778C15.8441 12.6209 16.061 13.1714 16.061 13.801C16.061 14.4342 15.8421 14.981 15.4116 15.4116C14.9813 15.8418 14.4347 16.06 13.801 16.06C13.1707 16.06 12.6195 15.8437 12.1768 15.4187C11.7286 14.9885 11.5 14.4389 11.5 13.801C11.5 13.1667 11.7264 12.6135 12.1694 12.1704C12.6126 11.7273 13.167 11.5 13.801 11.5ZM12.5 13.801C12.5 14.1697 12.6199 14.4579 12.8692 14.6973C13.1235 14.9414 13.4259 15.06 13.801 15.06C14.174 15.06 14.4651 14.9438 14.7044 14.7044C14.9443 14.4646 15.061 14.1732 15.061 13.801C15.061 13.427 14.9421 13.1253 14.6973 12.8702C14.4574 12.6203 14.1689 12.5 13.801 12.5C13.4309 12.5 13.1313 12.6228 12.8766 12.8776C12.6222 13.1319 12.5 13.4304 12.5 13.801Z" fill="#345E9F"/>
<mask id="mask0_664_2430" style="mask-type:luminance" maskUnits="userSpaceOnUse" x="11" y="11" width="18" height="18">
<path d="M22.1392 17.5348C22.8153 17.2275 23.4563 17.071 24.0752 17.0711C25.3478 17.1023 26.421 17.5522 27.2678 18.4147C28.1116 19.2742 28.5527 20.3372 28.5838 21.5795L28.584 28.084C28.584 28.3601 28.3601 28.584 28.084 28.584H24.523C24.2469 28.584 24.023 28.3601 24.023 28.084L24.0238 22.0804C24.005 21.7501 23.8565 21.4722 23.5563 21.2233C23.2396 20.9613 22.8979 20.835 22.514 20.835C22.1575 20.835 21.9192 20.939 21.7531 21.1482C21.5534 21.4007 21.4425 21.7072 21.422 22.052V28.084C21.422 28.3601 21.1981 28.584 20.922 28.584H17.361C17.0849 28.584 16.861 28.3601 16.861 28.084V17.362C16.861 17.0859 17.0849 16.862 17.361 16.862H20.922C21.1981 16.862 21.422 17.0859 21.422 17.362V17.9449C21.6399 17.7895 21.8791 17.6527 22.1392 17.5348ZM26.5542 19.1153C25.8928 18.4416 25.0679 18.0957 24.063 18.071C23.609 18.071 23.1061 18.1938 22.5526 18.4453C22.021 18.6865 21.6201 19.0168 21.3382 19.4402C21.0639 19.852 20.422 19.6578 20.422 19.163V17.862H17.861V27.584H20.4221L20.4228 22.0236C20.4555 21.4501 20.6379 20.9462 20.9694 20.5271C21.3352 20.0664 21.8653 19.835 22.514 19.835C23.1337 19.835 23.7 20.0444 24.1942 20.4531C24.7026 20.8747 24.9871 21.4072 25.023 22.052V27.584H27.584V21.5984C27.5579 20.6097 27.2173 19.7906 26.5542 19.1153ZM12 28.585C11.7239 28.585 11.5 28.3611 11.5 28.085V17.362C11.5 17.0859 11.7239 16.862 12 16.862H15.561C15.8371 16.862 16.061 17.0859 16.061 17.362V28.085C16.061 28.3611 15.8371 28.585 15.561 28.585H12ZM15.061 27.585V17.862H12.5V27.585H15.061ZM13.801 11.5C14.4385 11.5 14.9882 11.7293 15.4187 12.1778C15.8441 12.6209 16.061 13.1714 16.061 13.801C16.061 14.4342 15.8421 14.981 15.4116 15.4116C14.9813 15.8418 14.4347 16.06 13.801 16.06C13.1707 16.06 12.6195 15.8437 12.1768 15.4187C11.7286 14.9885 11.5 14.4389 11.5 13.801C11.5 13.1667 11.7264 12.6135 12.1694 12.1704C12.6126 11.7273 13.167 11.5 13.801 11.5ZM12.5 13.801C12.5 14.1697 12.6199 14.4579 12.8692 14.6973C13.1235 14.9414 13.4259 15.06 13.801 15.06C14.174 15.06 14.4651 14.9438 14.7044 14.7044C14.9443 14.4646 15.061 14.1732 15.061 13.801C15.061 13.427 14.9421 13.1253 14.6973 12.8702C14.4574 12.6203 14.1689 12.5 13.801 12.5C13.4309 12.5 13.1313 12.6228 12.8766 12.8776C12.6222 13.1319 12.5 13.4304 12.5 13.801Z" fill="#C9548B"/>
</mask>
<g mask="url(#mask0_664_2430)">
<path fill-rule="evenodd" clip-rule="evenodd" d="M6 6H34V34H6V6Z" fill="#345E9F"/>
</g>
</g>
<defs>
<clipPath id="clip0_664_2430">
<rect width="40" height="40" fill="white"/>
</clipPath>
</defs>
</svg>
