<svg width="40" height="40" viewBox="0 0 40 40" fill="none" xmlns="http://www.w3.org/2000/svg">
<g clip-path="url(#clip0_664_2464)">
<path d="M37 0H3C1.34315 0 0 1.34315 0 3V37C0 38.6569 1.34315 40 3 40H37C38.6569 40 40 38.6569 40 37V3C40 1.34315 38.6569 0 37 0Z" fill="white"/>
<mask id="mask0_664_2464" style="mask-type:luminance" maskUnits="userSpaceOnUse" x="10" y="11" width="20" height="17">
<path d="M16.5399 27.8898C15.4254 27.896 14.3162 27.7342 13.2499 27.4098C12.2441 27.0984 11.2827 26.658 10.3899 26.0998C10.1933 25.9757 10.1081 25.7323 10.1845 25.5127C10.2609 25.293 10.4787 25.1551 10.7099 25.1798C11.819 25.3016 12.9413 25.1822 13.9999 24.8298C14.3449 24.6992 14.6793 24.5421 14.9999 24.3598C13.6907 23.9194 12.6718 22.8783 12.2599 21.5598C12.1997 21.3857 12.2422 21.1925 12.3699 21.0598L12.4999 20.9998C12.2771 20.8169 12.0728 20.6126 11.8899 20.3898C11.2308 19.6188 10.8753 18.634 10.8899 17.6198C10.8936 17.4376 10.9872 17.2691 11.1399 17.1698C11.2615 17.0914 11.411 17.0695 11.5499 17.1098L11.4599 16.9398C11.125 16.2815 10.9665 15.5476 10.9999 14.8098C10.9965 14.0534 11.1895 13.3092 11.5599 12.6498C11.6479 12.5095 11.7953 12.4174 11.9599 12.3998C12.1253 12.391 12.285 12.4616 12.3899 12.5898C13.2775 13.6945 14.384 14.6035 15.6399 15.2598C16.772 15.8378 17.9977 16.2102 19.2599 16.3598C19.2599 16.2598 19.2599 16.1498 19.2599 16.0398C19.264 14.8982 19.7207 13.8049 20.5299 12.9998C21.3205 12.192 22.3997 11.7316 23.5299 11.7198C24.6422 11.7147 25.7148 12.133 26.5299 12.8898C27.2336 12.7221 27.9079 12.449 28.5299 12.0798C28.7022 11.9637 28.9277 11.9637 29.0999 12.0798C29.2634 12.2114 29.3273 12.431 29.2599 12.6298C29.1434 12.9823 28.982 13.3183 28.7799 13.6298L29.0899 13.4998C29.2927 13.4098 29.5306 13.4672 29.6699 13.6398C29.8103 13.8151 29.8103 14.0644 29.6699 14.2398C29.177 15.0017 28.5621 15.6773 27.8499 16.2398V16.4698C27.8405 19.2867 26.8304 22.0086 24.9999 24.1498C23.0599 26.4898 20.2099 27.7498 16.5299 27.8898H16.5399ZM12.6799 26.1498L13.5499 26.4598C14.5225 26.7538 15.534 26.8988 16.5499 26.8898C19.9199 26.7598 22.5499 25.6198 24.2699 23.5098C25.9697 21.5678 26.9325 19.0899 26.9899 16.5098V16.0498C26.9725 15.8778 27.0489 15.7097 27.1899 15.6098C27.4346 15.427 27.6683 15.23 27.8899 15.0198L27.3099 15.1198C27.0743 15.1573 26.8451 15.0231 26.7624 14.7993C26.6797 14.5755 26.7666 14.3245 26.9699 14.1998C27.2409 14.0359 27.4867 13.8339 27.6999 13.5998C27.3312 13.7301 26.9535 13.8337 26.5699 13.9098C26.3652 13.9804 26.1381 13.9166 25.9999 13.7498C25.0569 12.7474 23.5968 12.4237 22.3185 12.9336C21.0402 13.4436 20.2039 14.6835 20.2099 16.0598C20.208 16.3034 20.2417 16.5459 20.3099 16.7798C20.3558 16.9361 20.3227 17.1049 20.2212 17.2323C20.1197 17.3597 19.9625 17.4296 19.7999 17.4198C18.1762 17.3192 16.5902 16.8869 15.1399 16.1498C14.0027 15.5539 12.9748 14.7695 12.0999 13.8298C12.0003 14.1535 11.953 14.4911 11.9599 14.8298C11.9523 15.3939 12.0864 15.9509 12.3499 16.4498C12.6066 16.912 12.9701 17.3063 13.4099 17.5998C13.5913 17.7262 13.6681 17.9566 13.5989 18.1665C13.5297 18.3764 13.3309 18.516 13.1099 18.5098C12.7343 18.4917 12.362 18.4313 11.9999 18.3298C12.0941 18.845 12.3256 19.3252 12.6699 19.7198C13.1547 20.317 13.8346 20.7242 14.5899 20.8698C14.8132 20.9237 14.9728 21.1202 14.9799 21.3498C14.9869 21.5797 14.833 21.7835 14.6099 21.8398C14.2837 21.9291 13.948 21.9795 13.6099 21.9898C14.2049 22.9541 15.2471 23.5524 16.3799 23.5798C16.5898 23.5851 16.774 23.721 16.841 23.9199C16.9081 24.1188 16.8437 24.3385 16.6799 24.4698C15.9884 25.0407 15.1989 25.4812 14.3499 25.7698C13.8085 25.9558 13.2486 26.0832 12.6799 26.1498Z" fill="#C9548B"/>
</mask>
<g mask="url(#mask0_664_2464)">
<path fill-rule="evenodd" clip-rule="evenodd" d="M6 6H34V34H6V6Z" fill="#345E9F"/>
</g>
</g>
<defs>
<clipPath id="clip0_664_2464">
<rect width="40" height="40" fill="white"/>
</clipPath>
</defs>
</svg>
