<svg width="40" height="40" viewBox="0 0 40 40" fill="none" xmlns="http://www.w3.org/2000/svg">
<g clip-path="url(#clip0_664_2447)">
<path d="M37 0H3C1.34315 0 0 1.34315 0 3V37C0 38.6569 1.34315 40 3 40H37C38.6569 40 40 38.6569 40 37V3C40 1.34315 38.6569 0 37 0Z" fill="white"/>
<mask id="mask0_664_2447" style="mask-type:luminance" maskUnits="userSpaceOnUse" x="9" y="9" width="23" height="21">
<path d="M26.7302 14.9202C26.3166 14.9284 25.9175 14.7678 25.6251 14.4753C25.3326 14.1828 25.1719 13.7837 25.1802 13.3702C25.1754 12.9597 25.3336 12.5641 25.6202 12.2702C25.907 11.9903 26.2812 11.8173 26.6802 11.7802H26.7702C27.1698 11.8149 27.5448 11.9882 27.8302 12.2702C28.1194 12.5631 28.2812 12.9585 28.2802 13.3702C28.2896 13.7864 28.1268 14.188 27.8302 14.4802C27.5375 14.7686 27.141 14.9272 26.7302 14.9202ZM26.7302 12.7102C26.5579 12.7245 26.3973 12.8031 26.2802 12.9302C26.1611 13.0451 26.0958 13.2047 26.1002 13.3702C26.0942 13.5388 26.1596 13.7022 26.2802 13.8202C26.3969 13.9405 26.5575 14.0085 26.7252 14.0085C26.8929 14.0085 27.0534 13.9405 27.1702 13.8202C27.2953 13.7052 27.3615 13.5397 27.3502 13.3702C27.3599 13.2038 27.2937 13.042 27.1702 12.9302C27.0567 12.8037 26.8994 12.7251 26.7302 12.7102ZM20.0002 25.0002C17.2387 25.0002 15.0002 22.7616 15.0002 20.0002C15.0002 17.2387 17.2387 15.0002 20.0002 15.0002C22.7616 15.0002 25.0002 17.2387 25.0002 20.0002C25.0002 22.7616 22.7616 25.0002 20.0002 25.0002ZM20.0002 16.0002C17.791 16.0002 16.0002 17.791 16.0002 20.0002C16.0002 22.2093 17.791 24.0002 20.0002 24.0002C22.2093 24.0002 24.0002 22.2093 24.0002 20.0002C24.0002 18.9393 23.5787 17.9219 22.8286 17.1717C22.0784 16.4216 21.061 16.0002 20.0002 16.0002ZM26.0702 30.0002H13.9302C12.6194 30.0109 11.3591 29.495 10.4322 28.5681C9.50535 27.6412 8.9894 26.381 9.00017 25.0702V13.9302C8.9894 12.6194 9.50535 11.3591 10.4322 10.4322C11.3591 9.50535 12.6194 8.9894 13.9302 9.00017H26.0702C27.381 8.9894 28.6412 9.50535 29.5681 10.4322C30.495 11.3591 31.0109 12.6194 31.0002 13.9302V25.0702C31.0109 26.381 30.495 27.6412 29.5681 28.5681C28.6412 29.495 27.381 30.0109 26.0702 30.0002ZM13.9302 10.0002C11.721 10.0002 9.93017 11.791 9.93017 14.0002V25.0702C9.93017 27.2793 11.721 29.0702 13.9302 29.0702H26.0702C28.2793 29.0702 30.0702 27.2793 30.0702 25.0702V13.9302C30.0702 11.721 28.2793 9.93017 26.0702 9.93017L13.9302 10.0002Z" fill="#C9548B"/>
</mask>
<g mask="url(#mask0_664_2447)">
<path fill-rule="evenodd" clip-rule="evenodd" d="M6 6H34V34H6V6Z" fill="#345E9F"/>
</g>
</g>
<defs>
<clipPath id="clip0_664_2447">
<rect width="40" height="40" fill="white"/>
</clipPath>
</defs>
</svg>
