<svg xmlns="http://www.w3.org/2000/svg" width="18.581" height="18.621" viewBox="0 0 18.581 18.621" class="jsx-535e977ce6cdc429">
  <g id="sort-svgrepo-com" transform="translate(-0.533 0)" class="jsx-535e977ce6cdc429">
    <g id="Group_3949" data-name="Group 3949" transform="translate(0.533 0)" class="jsx-535e977ce6cdc429">
      <!-- Change the fill attribute to change the color -->
      <path id="Path_2545" data-name="Path 2545" d="M10.455,57.91a.8.8,0,0,0-1.107.08l-2.93,3.3v-13.2a.791.791,0,0,0-1.583,0v13.2L1.9,57.99A.8.8,0,0,0,.8,57.91a.8.8,0,0,0-.08,1.107l4.315,4.829a.734.734,0,0,0,1.149,0l4.353-4.829A.8.8,0,0,0,10.455,57.91Z" transform="translate(-0.533 -45.502)" class="jsx-535e977ce6cdc429 cls-1" fill="white"></path>

      <!-- Change the fill attribute to change the color -->
      <path id="Path_2546" data-name="Path 2546" d="M231.134,5.126,226.858.3a.742.742,0,0,0-1.187,0l-4.353,4.829a.8.8,0,0,0,.08,1.107.763.763,0,0,0,1.107-.08l2.93-3.3V16.012a.8.8,0,0,0,.791.791.762.762,0,0,0,.791-.753V2.854l2.93,3.3a.786.786,0,1,0,1.187-1.031Z" transform="translate(-212.739 0)" class="jsx-535e977ce6cdc429 cls-1" fill="white"></path>
    </g>
  </g>
</svg>