<svg xmlns="http://www.w3.org/2000/svg" width="18" height="18" viewBox="0 0 18 18">
  <defs>
    <style>
      .cls-1 {
        fill: #050536;
        opacity: 0.5;
      }
    </style>
  </defs>
  <g id="Price" transform="translate(-5 -5)">
    <path id="Price-2" data-name="Price" class="cls-1" d="M9,18a8.672,8.672,0,0,1-3.472-.706A9.247,9.247,0,0,1,.706,12.472,8.672,8.672,0,0,1,0,9,8.672,8.672,0,0,1,.706,5.528,9.291,9.291,0,0,1,2.651,2.656,9.18,9.18,0,0,1,5.519.706a8.907,8.907,0,0,1,6.949,0,9.234,9.234,0,0,1,4.827,4.822A8.672,8.672,0,0,1,18,9a8.672,8.672,0,0,1-.706,3.472,9.247,9.247,0,0,1-4.822,4.822A8.672,8.672,0,0,1,9,18ZM8.991,1.5a7.383,7.383,0,0,0-5.3,2.188,7.608,7.608,0,0,0-1.6,2.391A7.415,7.415,0,0,0,1.508,9a7.415,7.415,0,0,0,.579,2.92,7.518,7.518,0,0,0,3.992,4A7.356,7.356,0,0,0,9,16.5a7.393,7.393,0,0,0,2.925-.582,7.506,7.506,0,0,0,4-4A7.415,7.415,0,0,0,16.5,9a7.356,7.356,0,0,0-.582-2.92,7.551,7.551,0,0,0-4.006-4A7.415,7.415,0,0,0,8.991,1.5Zm0,10.879A3.25,3.25,0,0,1,7.3,11.92,3.524,3.524,0,0,1,6.07,10.7a3.348,3.348,0,0,1,0-3.384A3.53,3.53,0,0,1,7.3,6.1a3.34,3.34,0,0,1,3.379,0A3.525,3.525,0,0,1,11.9,7.314a3.348,3.348,0,0,1,0,3.384,3.519,3.519,0,0,1-1.226,1.222A3.24,3.24,0,0,1,8.991,12.38ZM9,7.033a1.892,1.892,0,0,0-.988.269,2.071,2.071,0,0,0-.719.715A1.877,1.877,0,0,0,7.024,9a1.938,1.938,0,0,0,.265,1A2.026,2.026,0,0,0,8,10.716a1.916,1.916,0,0,0,1,.269,1.855,1.855,0,0,0,.979-.269,2.082,2.082,0,0,0,.71-.719,1.908,1.908,0,0,0,.269-1,1.87,1.87,0,0,0-.269-.984,2.092,2.092,0,0,0-.71-.715A1.848,1.848,0,0,0,9,7.033Z" transform="translate(5 5)"/>
  </g>
</svg>