<svg xmlns="http://www.w3.org/2000/svg" width="17" height="22" viewBox="0 0 17 22">
  <defs>
    <style>
      .cls-1 {
        fill: #14b183;
      }

      .cls-2 {
        fill: #14b183;
      }
    </style>
  </defs>
  <g id="Offers" transform="translate(-6 -3)">
    <g id="Offers-2" data-name="Offers" transform="translate(6 3)">
      <path id="Path" class="cls-1" d="M8.048,22a9.873,9.873,0,0,0,3.66-.65A8.2,8.2,0,0,0,14.541,19.5a8.066,8.066,0,0,0,1.825-2.867A10.39,10.39,0,0,0,17,12.924a13.408,13.408,0,0,0-.593-4.12A11.653,11.653,0,0,0,14.78,5.528a12.075,12.075,0,0,0-2.371-2.475A14.065,14.065,0,0,0,9.576,1.331,14.693,14.693,0,0,0,6.556.325,13.94,13.94,0,0,0,3.65,0a1.922,1.922,0,0,0-.993.217A.693.693,0,0,0,2.3.846a.812.812,0,0,0,.073.33,1.5,1.5,0,0,0,.229.351A17.835,17.835,0,0,1,3.8,3.1a9.479,9.479,0,0,1,.941,1.759,5,5,0,0,1,.369,1.893,3.116,3.116,0,0,1-.1.784l-.046.154h0l-.043.112L4.9,7.772a3.816,3.816,0,0,0-.531-.821,3.72,3.72,0,0,0-1.035-.866,2.209,2.209,0,0,0-1.061-.309.521.521,0,0,0-.411.17.636.636,0,0,0-.151.438q0,.2.036.6t.036.758a5.1,5.1,0,0,1-.177,1.382,9.606,9.606,0,0,1-.447,1.248q-.27.619-.535,1.3A10.066,10.066,0,0,0,.182,13.2,9.2,9.2,0,0,0,0,15.131a6.5,6.5,0,0,0,1,3.615,6.63,6.63,0,0,0,2.807,2.4A9.824,9.824,0,0,0,8.048,22Z"/>
      <path id="Path-2" data-name="Path" class="cls-2" d="M3.737,10a4.049,4.049,0,0,1-2.708-.871A2.85,2.85,0,0,1,0,6.844a3.191,3.191,0,0,1,.232-1.28A5.133,5.133,0,0,1,.777,4.6q.313-.432.583-.836a2.177,2.177,0,0,0,.345-.883q.013-.082.063-.1a.121.121,0,0,1,.113.029,3.81,3.81,0,0,1,.721.777,7.343,7.343,0,0,1,.533.906,3.863,3.863,0,0,0,.69-1.777A8.588,8.588,0,0,0,3.837.134.117.117,0,0,1,3.868.018.129.129,0,0,1,4,.018,6.78,6.78,0,0,1,6.207,1.543,6.585,6.585,0,0,1,7.549,3.594,5.831,5.831,0,0,1,8,5.8a4.686,4.686,0,0,1-.464,2.069A3.666,3.666,0,0,1,6.125,9.416,4.477,4.477,0,0,1,3.737,10Z" transform="translate(4 9)"/>
    </g>
  </g>
</svg>